HIERARCHY
ROOT Hips
{
	OFFSET 0.00 0.00 0.00
	CHANNELS 6 Xposition Yposition Zposition Zrotation Yrotation Xrotation
	JOINT Spine
	{
		OFFSET	0.0720	7.2573	-0.7897
		CHANNELS 3 Zrotation Yrotation Xrotation
		JOINT Spine1
		{
			OFFSET	0.0000	8.4669	-0.9212
			CHANNELS 3 Zrotation Yrotation Xrotation
			JOINT Spine2
			{
				OFFSET	0.0000	29.0594	-1.0529
				CHANNELS 3 Zrotation Yrotation Xrotation
				JOINT Neck
				{
					OFFSET	-0.0000	14.0333	7.5204
					CHANNELS 3 Zrotation Yrotation Xrotation
					JOINT Head
					{
						OFFSET	0.0000	8.1985	5.7031
						CHANNELS 3 Zrotation Yrotation Xrotation
						End Site
						{
							OFFSET -0.0000 17.7608 13.3327
						}
					}
				}
				JOINT LeftShoulder
				{
					OFFSET	12.5849	11.5706	-1.3380
					CHANNELS 3 Zrotation Yrotation Xrotation
					JOINT LeftArm
					{
						OFFSET	12.0020	-9.3005	1.9651
						CHANNELS 3 Zrotation Yrotation Xrotation
						JOINT LeftForeArm
						{
							OFFSET	11.3305	-32.2015	0.4832
							CHANNELS 3 Zrotation Yrotation Xrotation
							JOINT LeftHand
							{
								OFFSET	13.5298	-37.9914	7.1643
								CHANNELS 3 Zrotation Yrotation Xrotation
								JOINT LeftHandThumb1
								{
									OFFSET	-7.4862	-11.5241	7.3723
									CHANNELS 3 Zrotation Yrotation Xrotation
									JOINT LeftHandThumb2
									{
										OFFSET	-1.3139	-1.8606	0.6509
										CHANNELS 3 Zrotation Yrotation Xrotation
										JOINT LeftHandThumb3
										{
											OFFSET	-1.2932	-2.2705	0.7801
											CHANNELS 3 Zrotation Yrotation Xrotation
											End Site
											{
												OFFSET -3.2656 -4.5911 2.7133
											}
										}
									}
								}
								JOINT LeftHandIndex1
								{
									OFFSET	-0.0293	-18.8303	2.3636
									CHANNELS 3 Zrotation Yrotation Xrotation
									JOINT LeftHandIndex2
									{
										OFFSET	-1.1093	-4.3114	-1.5417
										CHANNELS 3 Zrotation Yrotation Xrotation
										JOINT LeftHandIndex3
										{
											OFFSET	-0.8957	-2.5744	-0.9486
											CHANNELS 3 Zrotation Yrotation Xrotation
											End Site
											{
												OFFSET -2.2427 -5.4400 -1.7746
											}
										}
									}
								}
								JOINT LeftHandMiddle1
								{
									OFFSET	1.4214	-17.8450	-2.0009
									CHANNELS 3 Zrotation Yrotation Xrotation
									JOINT LeftHandMiddle2
									{
										OFFSET	-0.7725	-4.5062	-1.8888
										CHANNELS 3 Zrotation Yrotation Xrotation
										JOINT LeftHandMiddle3
										{
											OFFSET	-0.7919	-2.9550	-1.3457
											CHANNELS 3 Zrotation Yrotation Xrotation
											End Site
											{
												OFFSET -0.7011 -3.9405 -1.9720
											}
										}
									}
								}
								JOINT LeftHandRing1
								{
									OFFSET	1.6587	-15.2123	-5.8385
									CHANNELS 3 Zrotation Yrotation Xrotation
									JOINT LeftHandRing2
									{
										OFFSET	-1.3425	-3.0189	-1.2344
										CHANNELS 3 Zrotation Yrotation Xrotation
										JOINT LeftHandRing3
										{
											OFFSET	-0.9931	-2.4882	-1.2613
											CHANNELS 3 Zrotation Yrotation Xrotation
											End Site
											{
												OFFSET -2.5257 -3.8753 -1.6972
											}
										}
									}
								}
								JOINT LeftHandPinky1
								{
									OFFSET	1.0264	-11.9080	-8.2280
									CHANNELS 3 Zrotation Yrotation Xrotation
									JOINT LeftHandPinky2
									{
										OFFSET	-1.2572	-2.9054	-1.0239
										CHANNELS 3 Zrotation Yrotation Xrotation
										JOINT LeftHandPinky3
										{
											OFFSET	-1.5465	-2.4346	-0.8778
											CHANNELS 3 Zrotation Yrotation Xrotation
											End Site
											{
												OFFSET -3.5835 -4.1082 -2.1158
											}
										}
									}
								}
							}
						}
					}
				}
				JOINT RightShoulder
				{
					OFFSET	-12.5849	11.5707	-1.3380
					CHANNELS 3 Zrotation Yrotation Xrotation
					JOINT RightArm
					{
						OFFSET	-12.0019	-9.3005	1.9651
						CHANNELS 3 Zrotation Yrotation Xrotation
						JOINT RightForeArm
						{
							OFFSET	-11.3305	-32.2016	0.4832
							CHANNELS 3 Zrotation Yrotation Xrotation
							JOINT RightHand
							{
								OFFSET	-13.5299	-37.9914	7.1643
								CHANNELS 3 Zrotation Yrotation Xrotation
								JOINT RightHandThumb1
								{
									OFFSET	7.4862	-11.5241	7.3723
									CHANNELS 3 Zrotation Yrotation Xrotation
									JOINT RightHandThumb2
									{
										OFFSET	1.3139	-1.8607	0.6508
										CHANNELS 3 Zrotation Yrotation Xrotation
										JOINT RightHandThumb3
										{
											OFFSET	1.2932	-2.2705	0.7801
											CHANNELS 3 Zrotation Yrotation Xrotation
											End Site
											{
												OFFSET 3.2655 -4.5911 2.7134
											}
										}
									}
								}
								JOINT RightHandIndex1
								{
									OFFSET	0.0292	-18.8304	2.3636
									CHANNELS 3 Zrotation Yrotation Xrotation
									JOINT RightHandIndex2
									{
										OFFSET	1.1093	-4.3114	-1.5418
										CHANNELS 3 Zrotation Yrotation Xrotation
										JOINT RightHandIndex3
										{
											OFFSET	0.8957	-2.5744	-0.9486
											CHANNELS 3 Zrotation Yrotation Xrotation
											End Site
											{
												OFFSET 2.2426 -5.4400 -1.7746
											}
										}
									}
								}
								JOINT RightHandMiddle1
								{
									OFFSET	-1.4215	-17.8451	-2.0009
									CHANNELS 3 Zrotation Yrotation Xrotation
									JOINT RightHandMiddle2
									{
										OFFSET	0.7725	-4.5062	-1.8888
										CHANNELS 3 Zrotation Yrotation Xrotation
										JOINT RightHandMiddle3
										{
											OFFSET	0.7919	-2.9551	-1.3457
											CHANNELS 3 Zrotation Yrotation Xrotation
											End Site
											{
												OFFSET 0.7011 -3.9405 -1.9720
											}
										}
									}
								}
								JOINT RightHandRing1
								{
									OFFSET	-1.6588	-15.2123	-5.8385
									CHANNELS 3 Zrotation Yrotation Xrotation
									JOINT RightHandRing2
									{
										OFFSET	1.3425	-3.0189	-1.2345
										CHANNELS 3 Zrotation Yrotation Xrotation
										JOINT RightHandRing3
										{
											OFFSET	0.9931	-2.4882	-1.2613
											CHANNELS 3 Zrotation Yrotation Xrotation
											End Site
											{
												OFFSET 2.5257 -3.8753 -1.6971
											}
										}
									}
								}
								JOINT RightHandPinky1
								{
									OFFSET	-1.0265	-11.9079	-8.2279
									CHANNELS 3 Zrotation Yrotation Xrotation
									JOINT RightHandPinky2
									{
										OFFSET	1.2572	-2.9054	-1.0239
										CHANNELS 3 Zrotation Yrotation Xrotation
										JOINT RightHandPinky3
										{
											OFFSET	1.5466	-2.4346	-0.8779
											CHANNELS 3 Zrotation Yrotation Xrotation
											End Site
											{
												OFFSET 3.5836 -4.1082 -2.1158
											}
										}
									}
								}
							}
						}
					}
				}
			}
		}
	}
	JOINT LeftUpLeg
	{
		OFFSET	13.0269	-6.3363	-1.0928
		CHANNELS 3 Zrotation Yrotation Xrotation
		JOINT LeftLeg
		{
			OFFSET	4.8926	-45.7339	10.2648
			CHANNELS 3 Zrotation Yrotation Xrotation
			JOINT LeftFoot
			{
				OFFSET	4.6406	-53.6039	-11.2919
				CHANNELS 3 Zrotation Yrotation Xrotation
				JOINT LeftToeBase
				{
					OFFSET	0.1922	-14.0097	16.3640
					CHANNELS 3 Zrotation Yrotation Xrotation
					End Site
					{
						OFFSET -1.7847 -0.5617 9.4748
					}
				}
			}
		}
	}
	JOINT RightUpLeg
	{
		OFFSET	-12.8830	-6.3363	-1.0928
		CHANNELS 3 Zrotation Yrotation Xrotation
		JOINT RightLeg
		{
			OFFSET	-4.8926	-45.7339	10.2648
			CHANNELS 3 Zrotation Yrotation Xrotation
			JOINT RightFoot
			{
				OFFSET	-4.6406	-53.6039	-11.2919
				CHANNELS 3 Zrotation Yrotation Xrotation
				JOINT RightToeBase
				{
					OFFSET	-0.1922	-14.0097	16.3640
					CHANNELS 3 Zrotation Yrotation Xrotation
					End Site
					{
						OFFSET 1.7847 -0.5617 9.4748
					}
				}
			}
		}
	}
}
MOTION
Frames: 4
Frame Time: 0.0333333
-0.0717 116.1157 1.3074 -1.4774 -0.1179 -1.5180 0.4260 -0.1572 0.9678 0.1021 -2.4805 1.0155 0.1456 -2.4776 1.0086 -1.4682 0.8106 -2.7715 3.5307 -1.8728 5.4707 13.7183 7.2563 1.4021 -15.1293 -24.2538 3.4259 0.8904 -6.6078 -18.9539 3.7647 0.2966 -1.0521 17.7854 11.7474 14.0858 -1.8147 -11.4218 12.3630 7.7874 -3.9434 10.6305 -2.4723 1.3793 -9.3235 -28.5727 9.7167 6.1559 -13.3445 3.1465 5.8168 -12.9776 2.7591 -10.8732 -17.1598 7.1738 3.3118 -17.3483 8.0442 0.6322 -5.5544 3.0821 -9.1289 -17.7835 7.7609 -0.3626 -0.6657 -2.6653 5.6729 -18.2280 3.1192 0.5614 -12.5780 3.0887 0.8069 0.4151 2.0856 -3.0477 -17.7991 2.6066 0.2073 17.5832 25.3429 -0.1844 -0.6618 5.9060 -16.8573 -14.4380 -9.5061 -2.3988 -15.8155 8.3034 20.6981 5.7531 7.2348 -1.0744 -7.7808 1.7542 7.2542 -7.7558 1.1640 -6.7305 31.4086 -10.8278 6.4703 4.6604 -0.4020 3.8960 5.8065 -0.4913 -6.4255 21.8894 -9.3083 4.0044 8.2079 -5.7200 -0.6457 1.4196 -0.8060 -6.1921 22.1004 -9.3620 0.4271 -2.4750 2.1615 5.8085 9.5704 -0.9012 0.0545 8.1975 -1.0968 3.9277 -0.3194 -2.0987 -3.0148 -1.9430 3.6312 -9.2988 5.2170 11.1137 22.4113 0.2931 0.7538 -11.7129 0.0000 -0.0000 -0.4642 1.1290 -13.4258 -10.3298 -3.4386 -6.1031 19.4461 2.4067 -2.4717 -7.2545 0.0000 -0.0000 -0.0000 
0.1434 116.0354 1.2631 -1.6006 -0.1356 -1.5402 0.4420 -0.1438 1.0053 0.0869 -2.4608 1.0860 0.1318 -2.4581 1.0796 -1.4175 0.7921 -2.7398 3.5759 -1.8894 5.4252 13.7778 7.1170 1.3852 -15.1806 -24.3804 3.3757 0.8880 -6.6008 -18.9329 3.7370 0.2342 -1.0456 17.7962 11.7460 14.0917 -1.8141 -11.4090 12.3577 7.7857 -3.9432 10.6297 -2.5750 1.3924 -9.2910 -28.3971 9.6483 6.1375 -13.2570 3.1173 5.7994 -13.0927 2.7844 -10.8720 -17.0437 7.1221 3.2934 -17.2896 8.0174 0.6230 -5.6424 3.1198 -9.1656 -17.7337 7.7427 -0.3721 -0.6382 -2.6756 5.6641 -18.3670 3.1855 0.5039 -12.5780 3.0887 0.8069 0.4140 2.0859 -3.0474 -17.6509 2.8537 0.1839 17.4569 25.4189 -0.2299 -0.6677 5.9253 -16.9144 -14.4961 -9.5296 -2.4431 -15.9423 8.3144 20.6770 5.7853 7.1752 -1.1022 -7.7765 1.7555 7.2545 -7.7002 1.1449 -6.7677 31.3925 -10.8214 6.4689 4.6120 -0.3876 3.8841 5.9865 -0.5327 -6.4536 21.8213 -9.2772 3.9960 8.1229 -5.7030 -0.6597 1.5394 -0.8609 -6.2502 22.0294 -9.3351 0.4155 -2.5301 2.1723 5.7959 9.7681 -0.9821 -0.0054 8.1740 -1.0904 3.9221 -0.4192 -2.0787 -3.0405 -1.9160 3.6649 -9.4699 5.2139 11.0801 22.7325 0.4185 0.7848 -11.8729 0.0000 0.0000 -0.4457 1.1574 -13.5224 -10.4082 -3.5109 -6.1132 19.5475 2.5260 -2.3343 -7.2140 -0.0000 -0.0000 -0.0001 
0.3517 115.9743 1.2474 -1.7135 -0.1424 -1.5663 0.4544 -0.1302 1.0375 0.0694 -2.4364 1.1479 0.1156 -2.4338 1.1421 -1.3728 0.7769 -2.6851 3.6188 -1.9065 5.4252 13.8165 7.0551 1.3790 -15.1901 -24.4206 3.3414 0.8848 -6.5915 -18.9048 3.7318 0.1564 -1.0312 17.8063 11.7440 14.0984 -1.8129 -11.3948 12.3517 7.7836 -3.9410 10.6257 -2.6756 1.4044 -9.2558 -28.2359 9.5857 6.1204 -13.1759 3.0903 5.7832 -13.2195 2.8115 -10.8659 -16.9371 7.0748 3.2765 -17.2352 7.9926 0.6144 -5.7486 3.1598 -9.1964 -17.6885 7.7262 -0.3807 -0.6125 -2.6852 5.6559 -18.5483 3.2602 0.4556 -12.5780 3.0887 0.8069 0.4133 2.0860 -3.0473 -17.5777 3.0010 0.1690 17.4466 25.4902 -0.2407 -0.6709 5.9356 -16.9451 -14.5163 -9.6834 -2.5061 -16.0256 8.3292 20.6678 5.8105 7.1292 -1.1237 -7.7740 1.7554 7.2535 -7.5871 1.1312 -6.7481 31.3415 -10.8014 6.4645 4.5271 -0.3625 3.8632 6.0008 -0.5403 -6.4796 21.8473 -9.2891 3.9992 8.0561 -5.6650 -0.6777 1.5101 -0.8783 -6.3070 22.1093 -9.3654 0.4286 -2.5536 2.1950 5.7776 9.7775 -1.0133 -0.0699 8.2573 -1.1131 3.9419 -0.4646 -2.0697 -3.0521 -1.8926 3.6988 -9.5853 5.1820 11.0329 22.9855 0.5499 0.8276 -12.0192 0.0000 0.0000 -0.4395 1.1725 -13.6118 -10.4333 -3.5844 -6.1403 19.5973 2.6506 -2.1988 -7.1692 -0.0000 0.0000 -0.0001 
0.5379 115.9679 1.3101 -1.7935 -0.1205 -1.6115 0.4586 -0.1172 1.0570 0.0448 -2.4013 1.1896 0.0922 -2.3989 1.1848 -1.3556 0.7739 -2.5682 3.6564 -1.9236 5.5316 13.8209 7.0373 1.3776 -15.1521 -24.4099 3.3185 0.8809 -6.5803 -18.8711 3.7412 0.0791 -1.0045 17.8139 11.7412 14.1052 -1.8098 -11.3774 12.3439 7.7801 -3.9335 10.6133 -2.7217 1.4092 -9.2367 -28.1625 9.5571 6.1125 -13.1390 3.0781 5.7758 -13.3294 2.8351 -10.8603 -16.8885 7.0532 3.2688 -17.2104 7.9813 0.6105 -5.8731 3.1987 -9.2129 -17.6690 7.7191 -0.3844 -0.6001 -2.6898 5.6519 -18.7968 3.3422 0.4358 -12.5780 3.0887 0.8069 0.4134 2.0860 -3.0473 -17.5467 3.0878 0.1599 17.5092 25.5698 -0.2186 -0.6733 5.9434 -16.9682 -14.5118 -9.9105 -2.5766 -15.9650 8.2864 20.6708 5.7896 7.2020 -1.0877 -7.7810 1.7691 7.2772 -7.3241 1.1328 -6.5745 31.1922 -10.7426 6.4515 4.3476 -0.3094 3.8189 5.4619 -0.4405 -6.5250 22.1731 -9.4380 4.0386 8.0608 -5.5671 -0.7045 1.0026 -0.7852 -6.3809 22.6590 -9.5739 0.5178 -2.4740 2.2551 5.7418 9.1776 -0.8950 -0.1733 8.6774 -1.2279 4.0415 -0.3389 -2.0948 -3.0198 -1.8761 3.7047 -9.5340 5.0738 10.9701 23.0496 0.6905 0.9050 -12.1268 -0.0000 -0.0000 -0.4544 1.1461 -13.6709 -10.3016 -3.6574 -6.2091 19.5053 2.7890 -2.0818 -7.1165 -0.0000 -0.0000 -0.0000 
